<svg xmlns="http://www.w3.org/2000/svg" viewBox="0 0 220.23 214.21"><defs><style>.cls-1{fill:#fff;}</style></defs><g id="Layer_2" data-name="Layer 2"><g id="Layer_2-2" data-name="Layer 2"><path class="cls-1" d="M173.5,8.22C175.13,2.83,178,.28,183.41.15c9.24-.21,18.5-.21,27.74.05a9,9,0,0,1,9.08,9.42c-.18,5.25-3.94,8.88-9.53,9s-11.5.2-17.24,0c-2.92-.12-4.07.92-4.87,3.66-10,33.88-20,67.76-30.26,101.57-1.92,6.33-2.56,11.81.06,18.48,5.87,14.93-2.07,26.64-18.08,27.58-7.18.43-14.44-.47-21.65-.92C96.47,167.55,74.3,166,52.1,164.74c-8.22-.47-16.48-.27-24.72-.41C21,164.22,17.44,160.19,19,155c1-3.31,4.15-5.16,9-5.22,31.53-.43,62.88,2.39,94.26,4.85,6.19.48,12.43.41,18.64.29,2.53,0,5-.86,4.82-4.39s-1.61-5.16-5.24-5.28c-3.48-.11-6.95-.7-10.42-1.12Q100.7,140.57,71.35,137c-15.23-1.84-30.48-3.59-45.71-5.51-6.92-.87-9.19-3.24-10.52-10.1Q7.8,83.54.42,45.72c-1.76-9,2-13.65,11.18-13.65H166.45C168.85,24,171.13,16.08,173.5,8.22ZM115.61,51V80.3h15.85c6,0,12,.08,18-.08,1.08,0,2.85-.79,3.11-1.6,2.9-9.1,5.56-18.28,8.36-27.67Zm-9.13,71.74V89.19H69.2v28.86Zm.1-71.7H69.11V80.05h37.47ZM59.87,51H20.38C22.22,60.65,24,70.17,25.9,80h34ZM115.4,89.19c0,11-.05,21.86.11,32.68,0,.72,1.48,1.91,2.4,2q9.24,1.36,18.54,2.28a2.9,2.9,0,0,0,2.36-1.49c3.61-11.74,7.08-23.53,10.65-35.52ZM59.83,117V89.23H27.73c1.59,8.14,3.16,16.14,4.79,24.49Z"/><path class="cls-1" d="M127.61,196a18.41,18.41,0,1,0,18-18.61A18.23,18.23,0,0,0,127.61,196Z"/><path class="cls-1" d="M22.7,195.84a18.4,18.4,0,1,0,18.18-18.43A18.31,18.31,0,0,0,22.7,195.84Z"/></g></g></svg>