<svg xmlns="http://www.w3.org/2000/svg" viewBox="0 0 301.01 123.18"><defs><style>.cls-1{fill:#e52421;}.cls-1,.cls-2,.cls-6,.cls-7,.cls-8,.cls-9{opacity:0.47;}.cls-2{fill:#b51917;}.cls-3,.cls-5{fill:none;stroke:#1d1d1b;stroke-miterlimit:10;}.cls-3{stroke-linecap:round;}.cls-4{fill:#1d1d1b;}.cls-5{stroke-width:1.5px;}.cls-6{fill:#3664ad;}.cls-7{fill:#20509f;}.cls-8{fill:#ffed00;}.cls-9{fill:#b5a600;}</style></defs><g id="Layer_2" data-name="Layer 2"><g id="Layer_1-2" data-name="Layer 1"><path class="cls-1" d="M288.77,76.48V85a34.59,34.59,0,0,1-3.13,12.75A34.78,34.78,0,0,1,219.06,83.5l-.37-48.77a4.15,4.15,0,0,1,4.15-4.18h20A45.93,45.93,0,0,1,288.77,76.48Z"/><path class="cls-2" d="M271.25,3.13h6.07a24.58,24.58,0,0,1,9.07,2.22,25,25,0,0,1,10.55,36.37,24.92,24.92,0,0,1-20.7,11L241.57,53a2.94,2.94,0,0,1-3-3V35.78A32.65,32.65,0,0,1,271.25,3.13Z"/><path class="cls-2" d="M222.54,83.25c-.5-.79,1.23-2.8,4-4.76L214.64,58.23,202.17,37,216,57.4,229.1,76.87c3-1.65,5.52-2.34,6-1.55s-1.25,2.83-4,4.79L234,84.75a1.35,1.35,0,0,1-.47,1.87l-.13.09a1.37,1.37,0,0,1-1.9-.39l-2.91-4.63C225.62,83.35,223,84.05,222.54,83.25Z"/><line class="cls-3" x1="230.63" y1="31" x2="239.6" y2="34.14"/><line class="cls-3" x1="229" y1="33.67" x2="235.12" y2="40.29"/><path class="cls-4" d="M222.18,31.69c6.43,0,6.45-10,0-10s-6.45,10,0,10Z"/><path class="cls-5" d="M292.39,71.54v8.54a34.65,34.65,0,0,1-3.13,12.76,34.78,34.78,0,0,1-66.58-14.28l-.37-48.76a4.15,4.15,0,0,1,4.15-4.19h20A45.94,45.94,0,0,1,292.39,71.54Z"/><path class="cls-6" d="M12.65,75.78V84.6a35.44,35.44,0,0,0,3.24,13.18A35.93,35.93,0,0,0,84.67,83l.38-50.38a4.28,4.28,0,0,0-4.29-4.32H60.1A47.45,47.45,0,0,0,12.65,75.78Z"/><path class="cls-7" d="M30.75,0H24.47A25.27,25.27,0,0,0,15.1,2.3,25.76,25.76,0,0,0,4.21,39.86,25.71,25.71,0,0,0,25.59,51.2l35.82.27a3,3,0,0,0,3.07-3V33.74A33.73,33.73,0,0,0,30.75,0Z"/><path class="cls-7" d="M78.48,82c.5-.79-1.24-2.81-4-4.76L86.37,57,98.84,35.76,85.05,56.18,71.91,75.65c-3-1.65-5.52-2.34-6-1.55s1.25,2.83,4,4.79L67,83.53a1.37,1.37,0,0,0,.47,1.87l.14.09a1.36,1.36,0,0,0,1.89-.39l2.92-4.63C75.39,82.13,78,82.83,78.48,82Z"/><line class="cls-3" x1="70.39" y1="29.78" x2="61.41" y2="32.92"/><line class="cls-3" x1="72.01" y1="32.45" x2="65.9" y2="39.07"/><path class="cls-4" d="M78.83,30.47c6.44,0,6.45-10,0-10s-6.44,10,0,10Z"/><path class="cls-5" d="M8.63,70.32v8.54a34.26,34.26,0,0,0,3.13,12.76A34.78,34.78,0,0,0,78.34,77.34l.37-48.76a4.16,4.16,0,0,0-4.16-4.19h-20A45.93,45.93,0,0,0,8.63,70.32Z"/><path class="cls-8" d="M185.58,84.88c0,21.15-15.7,38.3-35.06,38.3S115.46,106,115.46,84.88a40.14,40.14,0,0,1,8.61-25.12,25.45,25.45,0,0,1,2.9-3.71l20.72-21.92a3.85,3.85,0,0,1,5.66,0l20.71,21.92a25.14,25.14,0,0,1,2.86,3.64A40.16,40.16,0,0,1,185.58,84.88Z"/><line class="cls-3" x1="141.06" y1="24.86" x2="131.72" y2="23.04"/><line class="cls-3" x1="141.12" y1="27.98" x2="132.5" y2="30.62"/><path class="cls-4" d="M150.52,30.39c6.44,0,6.45-10,0-10s-6.44,10,0,10Z"/><line class="cls-3" x1="159.08" y1="24.34" x2="168.42" y2="22.53"/><line class="cls-3" x1="159.02" y1="27.46" x2="167.64" y2="30.1"/><path class="cls-9" d="M99.66,54.91l-1,5.09a20.84,20.84,0,0,0,.39,8,21.14,21.14,0,0,0,41.38-.82l5.87-29.06a2.52,2.52,0,0,0-2-3l-11.93-2.32A27.92,27.92,0,0,0,99.66,54.91Z"/><path class="cls-9" d="M200.44,50.46l1.52,5a21,21,0,0,1,.45,8A21.14,21.14,0,0,1,161.17,67l-8.9-28.28a2.53,2.53,0,0,1,1.67-3.17l11.62-3.56A27.94,27.94,0,0,1,200.44,50.46Z"/><path class="cls-9" d="M178.14,75.49c.09-.93-2.36-1.95-5.7-2.46L174,49.59,175.56,25l-3.15,24.44-3,23.3c-3.39-.15-6,.38-6.07,1.32s2.38,2,5.75,2.47L168.56,82a1.37,1.37,0,0,0,1.26,1.47H170a1.36,1.36,0,0,0,1.51-1.19l.53-5.46C175.42,77,178.05,76.43,178.14,75.49Z"/><path class="cls-5" d="M185.58,77c0,21.15-15.7,38.3-35.06,38.3S115.46,98.13,115.46,77a40.14,40.14,0,0,1,8.61-25.12,24.84,24.84,0,0,1,2.9-3.7l20.72-21.92a3.85,3.85,0,0,1,5.66,0l20.71,21.92a24.6,24.6,0,0,1,2.86,3.64A40.13,40.13,0,0,1,185.58,77Z"/></g></g></svg>