<svg xmlns="http://www.w3.org/2000/svg" viewBox="0 0 1091.35 194.87"><defs><style>.cls-1{fill:#fff;}.cls-2{fill:#f7cc4b;}</style></defs><g id="Layer_2" data-name="Layer 2"><g id="Layer_2-2" data-name="Layer 2"><rect class="cls-1" width="1091.35" height="194.87"/><path class="cls-2" d="M49.57,186.45c1.46-9.46,2.8-18.12,4.16-26.78,1.82-11.68,3.85-23.33,5.35-35a9.4,9.4,0,0,0-2.44-6.83c-13-13.12-26.3-26-39.53-38.93-1.29-1.26-2.77-2.33-4.86-4.08a32.72,32.72,0,0,1,4.17-1.49c19.23-3.06,38.47-6.15,57.73-9a7,7,0,0,0,5.94-4.38C89.09,41.5,98.27,23.2,107.83,4c1.8,3.33,3.29,6,4.67,8.66C120.38,28.08,128.35,43.45,136,59a8.22,8.22,0,0,0,7.09,5.09c19,2.65,37.88,5.53,56.82,8.36a37.62,37.62,0,0,1,3.82,1.09c-1.75,1.83-3.07,3.27-4.45,4.65-13,13-25.87,26-39,38.81a7.9,7.9,0,0,0-2.52,7.93c3.13,17.7,6.06,35.44,9,53.17.38,2.26.66,4.54,1.14,7.9-6.41-3.2-12-5.95-17.56-8.78-12.46-6.34-25-12.61-37.32-19.15a8.26,8.26,0,0,0-8.77,0c-16.6,8.86-33.32,17.48-50,26.17C53.06,184.88,51.72,185.45,49.57,186.45Z"/><path class="cls-2" d="M273.9,186.42c1.47-9.45,2.81-18.12,4.16-26.78,1.83-11.68,3.86-23.33,5.36-35a9.38,9.38,0,0,0-2.44-6.82c-13-13.13-26.31-26-39.53-38.93-1.29-1.27-2.77-2.34-4.86-4.09a30.22,30.22,0,0,1,4.17-1.48c19.23-3.07,38.46-6.16,57.72-9a7,7,0,0,0,5.95-4.37c9-18.38,18.18-36.67,27.74-55.88,1.8,3.33,3.29,6,4.67,8.67,7.88,15.41,15.85,30.79,23.52,46.31a8.19,8.19,0,0,0,7.08,5.1c19,2.65,37.89,5.53,56.83,8.36a34.72,34.72,0,0,1,3.82,1.08c-1.75,1.83-3.07,3.27-4.46,4.65-12.95,13-25.86,26-38.95,38.82a7.89,7.89,0,0,0-2.51,7.92c3.13,17.71,6.05,35.45,9,53.18.38,2.26.66,4.54,1.14,7.89-6.41-3.2-12-5.95-17.56-8.78-12.46-6.33-25-12.6-37.33-19.14a8.24,8.24,0,0,0-8.76,0c-16.6,8.86-33.32,17.48-50,26.17C277.4,184.86,276.06,185.42,273.9,186.42Z"/><path class="cls-2" d="M492.25,186.35c1.47-9.46,2.8-18.12,4.16-26.78,1.83-11.68,3.85-23.33,5.36-35a9.35,9.35,0,0,0-2.45-6.83c-13-13.13-26.3-26-39.52-38.93-1.3-1.26-2.77-2.34-4.86-4.08a29.32,29.32,0,0,1,4.16-1.49c19.24-3.06,38.47-6.15,57.73-9a7,7,0,0,0,5.95-4.38c9-18.38,18.17-36.67,27.73-55.87,1.8,3.33,3.3,6,4.67,8.66C563.07,28,571,43.35,578.7,58.88A8.22,8.22,0,0,0,585.79,64c19,2.65,37.89,5.53,56.82,8.36a33.53,33.53,0,0,1,3.82,1.08c-1.74,1.83-3.07,3.27-4.45,4.66-13,13-25.86,26-39,38.81a7.9,7.9,0,0,0-2.51,7.93c3.13,17.7,6.05,35.44,9,53.17.38,2.26.65,4.54,1.13,7.89-6.4-3.2-12-6-17.55-8.77-12.47-6.34-25-12.61-37.33-19.15a8.24,8.24,0,0,0-8.76,0c-16.6,8.85-33.33,17.47-50,26.16C495.75,184.78,494.41,185.34,492.25,186.35Z"/><path class="cls-2" d="M707.2,186.42c1.47-9.45,2.8-18.12,4.16-26.78,1.83-11.68,3.85-23.33,5.35-35a9.38,9.38,0,0,0-2.44-6.82c-13-13.13-26.3-26-39.53-38.93-1.29-1.27-2.77-2.34-4.86-4.09a30.69,30.69,0,0,1,4.17-1.48c19.24-3.07,38.47-6.16,57.73-9a7,7,0,0,0,5.94-4.37c9-18.38,18.18-36.67,27.74-55.88,1.8,3.33,3.29,6,4.67,8.67C778,28.05,786,43.43,793.65,59a8.21,8.21,0,0,0,7.09,5.1c19,2.65,37.89,5.53,56.82,8.36a34.72,34.72,0,0,1,3.82,1.08c-1.75,1.83-3.07,3.27-4.45,4.65-13,13-25.87,26-38.95,38.82a7.89,7.89,0,0,0-2.52,7.92c3.14,17.71,6.06,35.45,9,53.18.38,2.26.66,4.54,1.14,7.89-6.4-3.2-12-5.95-17.55-8.78-12.47-6.33-25-12.6-37.33-19.14a8.26,8.26,0,0,0-8.77,0c-16.6,8.86-33.32,17.48-50,26.17C710.69,184.86,709.36,185.42,707.2,186.42Z"/><path class="cls-2" d="M925.94,186.48c1.47-9.46,2.8-18.13,4.16-26.79,1.83-11.67,3.85-23.33,5.35-35a9.38,9.38,0,0,0-2.44-6.82c-13-13.13-26.3-26-39.53-38.93-1.29-1.27-2.77-2.34-4.86-4.08a29.76,29.76,0,0,1,4.17-1.49c19.24-3.07,38.47-6.15,57.73-9a7,7,0,0,0,5.94-4.37c9-18.38,18.18-36.67,27.74-55.87,1.8,3.33,3.29,6,4.67,8.66,7.89,15.41,15.86,30.79,23.52,46.31a8.21,8.21,0,0,0,7.09,5.1c19,2.65,37.89,5.53,56.82,8.36a34.72,34.72,0,0,1,3.82,1.08c-1.75,1.83-3.07,3.27-4.45,4.65-13,13-25.87,26-39,38.82a7.9,7.9,0,0,0-2.52,7.93c3.14,17.7,6.06,35.44,9,53.17.38,2.26.66,4.54,1.14,7.89-6.41-3.2-12-5.95-17.55-8.77-12.47-6.34-25-12.61-37.33-19.15a8.26,8.26,0,0,0-8.77,0c-16.6,8.86-33.32,17.48-50,26.17C929.43,184.91,928.1,185.47,925.94,186.48Z"/></g></g></svg>