<svg xmlns="http://www.w3.org/2000/svg" viewBox="0 0 1091.35 194.87"><defs><style>.cls-1{fill:#fff;}.cls-2{fill:#f7cc4b;}</style></defs><g id="Layer_2" data-name="Layer 2"><g id="Layer_2-2" data-name="Layer 2"><rect class="cls-1" width="1091.35" height="194.87"/><path class="cls-2" d="M707.2,186.42c1.47-9.45,2.8-18.12,4.16-26.78,1.83-11.68,3.85-23.33,5.35-35a9.38,9.38,0,0,0-2.44-6.82c-13-13.13-26.3-26-39.53-38.93-1.29-1.27-2.77-2.34-4.86-4.09a30.69,30.69,0,0,1,4.17-1.48c19.24-3.07,38.47-6.16,57.73-9a7,7,0,0,0,5.94-4.37c9-18.38,18.18-36.67,27.74-55.88,1.8,3.33,3.29,6,4.67,8.67C778,28.05,786,43.43,793.65,59a8.21,8.21,0,0,0,7.09,5.1c19,2.65,37.89,5.53,56.82,8.36a34.72,34.72,0,0,1,3.82,1.08c-1.75,1.83-3.07,3.27-4.45,4.65-13,13-25.87,26-38.95,38.82a7.89,7.89,0,0,0-2.52,7.92c3.14,17.71,6.06,35.45,9,53.18.38,2.26.66,4.54,1.14,7.89-6.4-3.2-12-5.95-17.55-8.78-12.47-6.33-25-12.6-37.33-19.14a8.26,8.26,0,0,0-8.77,0c-16.6,8.86-33.32,17.48-50,26.17C710.69,184.86,709.36,185.42,707.2,186.42Z"/><path class="cls-2" d="M925.94,186.48c1.47-9.46,2.8-18.13,4.16-26.79,1.83-11.67,3.85-23.33,5.35-35a9.38,9.38,0,0,0-2.44-6.82c-13-13.13-26.3-26-39.53-38.93-1.29-1.27-2.77-2.34-4.86-4.08a29.76,29.76,0,0,1,4.17-1.49c19.24-3.07,38.47-6.15,57.73-9a7,7,0,0,0,5.94-4.37c9-18.38,18.18-36.67,27.74-55.87,1.8,3.33,3.29,6,4.67,8.66,7.89,15.41,15.86,30.79,23.52,46.31a8.21,8.21,0,0,0,7.09,5.1c19,2.65,37.89,5.53,56.82,8.36a34.72,34.72,0,0,1,3.82,1.08c-1.75,1.83-3.07,3.27-4.45,4.65-13,13-25.87,26-39,38.82a7.9,7.9,0,0,0-2.52,7.93c3.14,17.7,6.06,35.44,9,53.17.38,2.26.66,4.54,1.14,7.89-6.41-3.2-12-5.95-17.55-8.77-12.47-6.34-25-12.61-37.33-19.15a8.26,8.26,0,0,0-8.77,0c-16.6,8.86-33.32,17.48-50,26.17C929.43,184.91,928.1,185.47,925.94,186.48Z"/></g></g></svg>